<svg xmlns:xlink="http://www.w3.org/1999/xlink" width="75ex" height="12.843ex" style="font-size: 15px; vertical-align: -6.338ex; max-width: 450;" viewBox="0 -2800.6 32291.5 5529.4" role="img" focusable="false" xmlns="http://www.w3.org/2000/svg">
<defs>
<path stroke-width="1" id="E1-MJMAIN-7B" d="M434 -231Q434 -244 428 -250H410Q281 -250 230 -184Q225 -177 222 -172T217 -161T213 -148T211 -133T210 -111T209 -84T209 -47T209 0Q209 21 209 53Q208 142 204 153Q203 154 203 155Q189 191 153 211T82 231Q71 231 68 234T65 250T68 266T82 269Q116 269 152 289T203 345Q208 356 208 377T209 529V579Q209 634 215 656T244 698Q270 724 324 740Q361 748 377 749Q379 749 390 749T408 750H428Q434 744 434 732Q434 719 431 716Q429 713 415 713Q362 710 332 689T296 647Q291 634 291 499V417Q291 370 288 353T271 314Q240 271 184 255L170 250L184 245Q202 239 220 230T262 196T290 137Q291 131 291 1Q291 -134 296 -147Q306 -174 339 -192T415 -213Q429 -213 431 -216Q434 -219 434 -231Z"></path>
<path stroke-width="1" id="E1-MJMATHI-62" d="M73 647Q73 657 77 670T89 683Q90 683 161 688T234 694Q246 694 246 685T212 542Q204 508 195 472T180 418L176 399Q176 396 182 402Q231 442 283 442Q345 442 383 396T422 280Q422 169 343 79T173 -11Q123 -11 82 27T40 150V159Q40 180 48 217T97 414Q147 611 147 623T109 637Q104 637 101 637H96Q86 637 83 637T76 640T73 647ZM336 325V331Q336 405 275 405Q258 405 240 397T207 376T181 352T163 330L157 322L136 236Q114 150 114 114Q114 66 138 42Q154 26 178 26Q211 26 245 58Q270 81 285 114T318 219Q336 291 336 325Z"></path>
<path stroke-width="1" id="E1-MJMAIN-3D" d="M56 347Q56 360 70 367H707Q722 359 722 347Q722 336 708 328L390 327H72Q56 332 56 347ZM56 153Q56 168 72 173H708Q722 163 722 153Q722 140 707 133H70Q56 140 56 153Z"></path>
<path stroke-width="1" id="E1-MJMAIN-30" d="M96 585Q152 666 249 666Q297 666 345 640T423 548Q460 465 460 320Q460 165 417 83Q397 41 362 16T301 -15T250 -22Q224 -22 198 -16T137 16T82 83Q39 165 39 320Q39 494 96 585ZM321 597Q291 629 250 629Q208 629 178 597Q153 571 145 525T137 333Q137 175 145 125T181 46Q209 16 250 16Q290 16 318 46Q347 76 354 130T362 333Q362 478 354 524T321 597Z"></path>
<path stroke-width="1" id="E1-MJMAIN-28" d="M94 250Q94 319 104 381T127 488T164 576T202 643T244 695T277 729T302 750H315H319Q333 750 333 741Q333 738 316 720T275 667T226 581T184 443T167 250T184 58T225 -81T274 -167T316 -220T333 -241Q333 -250 318 -250H315H302L274 -226Q180 -141 137 -14T94 250Z"></path>
<path stroke-width="1" id="E1-MJMATHI-63" d="M34 159Q34 268 120 355T306 442Q362 442 394 418T427 355Q427 326 408 306T360 285Q341 285 330 295T319 325T330 359T352 380T366 386H367Q367 388 361 392T340 400T306 404Q276 404 249 390Q228 381 206 359Q162 315 142 235T121 119Q121 73 147 50Q169 26 205 26H209Q321 26 394 111Q403 121 406 121Q410 121 419 112T429 98T420 83T391 55T346 25T282 0T202 -11Q127 -11 81 37T34 159Z"></path>
<path stroke-width="1" id="E1-MJMATHI-6F" d="M201 -11Q126 -11 80 38T34 156Q34 221 64 279T146 380Q222 441 301 441Q333 441 341 440Q354 437 367 433T402 417T438 387T464 338T476 268Q476 161 390 75T201 -11ZM121 120Q121 70 147 48T206 26Q250 26 289 58T351 142Q360 163 374 216T388 308Q388 352 370 375Q346 405 306 405Q243 405 195 347Q158 303 140 230T121 120Z"></path>
<path stroke-width="1" id="E1-MJMATHI-6E" d="M21 287Q22 293 24 303T36 341T56 388T89 425T135 442Q171 442 195 424T225 390T231 369Q231 367 232 367L243 378Q304 442 382 442Q436 442 469 415T503 336T465 179T427 52Q427 26 444 26Q450 26 453 27Q482 32 505 65T540 145Q542 153 560 153Q580 153 580 145Q580 144 576 130Q568 101 554 73T508 17T439 -10Q392 -10 371 17T350 73Q350 92 386 193T423 345Q423 404 379 404H374Q288 404 229 303L222 291L189 157Q156 26 151 16Q138 -11 108 -11Q95 -11 87 -5T76 7T74 17Q74 30 112 180T152 343Q153 348 153 366Q153 405 129 405Q91 405 66 305Q60 285 60 284Q58 278 41 278H27Q21 284 21 287Z"></path>
<path stroke-width="1" id="E1-MJMATHI-64" d="M366 683Q367 683 438 688T511 694Q523 694 523 686Q523 679 450 384T375 83T374 68Q374 26 402 26Q411 27 422 35Q443 55 463 131Q469 151 473 152Q475 153 483 153H487H491Q506 153 506 145Q506 140 503 129Q490 79 473 48T445 8T417 -8Q409 -10 393 -10Q359 -10 336 5T306 36L300 51Q299 52 296 50Q294 48 292 46Q233 -10 172 -10Q117 -10 75 30T33 157Q33 205 53 255T101 341Q148 398 195 420T280 442Q336 442 364 400Q369 394 369 396Q370 400 396 505T424 616Q424 629 417 632T378 637H357Q351 643 351 645T353 664Q358 683 366 683ZM352 326Q329 405 277 405Q242 405 210 374T160 293Q131 214 119 129Q119 126 119 118T118 106Q118 61 136 44T179 26Q233 26 290 98L298 109L352 326Z"></path>
<path stroke-width="1" id="E1-MJMATHI-69" d="M184 600Q184 624 203 642T247 661Q265 661 277 649T290 619Q290 596 270 577T226 557Q211 557 198 567T184 600ZM21 287Q21 295 30 318T54 369T98 420T158 442Q197 442 223 419T250 357Q250 340 236 301T196 196T154 83Q149 61 149 51Q149 26 166 26Q175 26 185 29T208 43T235 78T260 137Q263 149 265 151T282 153Q302 153 302 143Q302 135 293 112T268 61T223 11T161 -11Q129 -11 102 10T74 74Q74 91 79 106T122 220Q160 321 166 341T173 380Q173 404 156 404H154Q124 404 99 371T61 287Q60 286 59 284T58 281T56 279T53 278T49 278T41 278H27Q21 284 21 287Z"></path>
<path stroke-width="1" id="E1-MJMATHI-74" d="M26 385Q19 392 19 395Q19 399 22 411T27 425Q29 430 36 430T87 431H140L159 511Q162 522 166 540T173 566T179 586T187 603T197 615T211 624T229 626Q247 625 254 615T261 596Q261 589 252 549T232 470L222 433Q222 431 272 431H323Q330 424 330 420Q330 398 317 385H210L174 240Q135 80 135 68Q135 26 162 26Q197 26 230 60T283 144Q285 150 288 151T303 153H307Q322 153 322 145Q322 142 319 133Q314 117 301 95T267 48T216 6T155 -11Q125 -11 98 4T59 56Q57 64 57 83V101L92 241Q127 382 128 383Q128 385 77 385H26Z"></path>
<path stroke-width="1" id="E1-MJMAIN-31" d="M213 578L200 573Q186 568 160 563T102 556H83V602H102Q149 604 189 617T245 641T273 663Q275 666 285 666Q294 666 302 660V361L303 61Q310 54 315 52T339 48T401 46H427V0H416Q395 3 257 3Q121 3 100 0H88V46H114Q136 46 152 46T177 47T193 50T201 52T207 57T213 61V578Z"></path>
<path stroke-width="1" id="E1-MJMAIN-29" d="M60 749L64 750Q69 750 74 750H86L114 726Q208 641 251 514T294 250Q294 182 284 119T261 12T224 -76T186 -143T145 -194T113 -227T90 -246Q87 -249 86 -250H74Q66 -250 63 -250T58 -247T55 -238Q56 -237 66 -225Q221 -64 221 250T66 725Q56 737 55 738Q55 746 60 749Z"></path>
<path stroke-width="1" id="E1-MJMATHI-61" d="M33 157Q33 258 109 349T280 441Q331 441 370 392Q386 422 416 422Q429 422 439 414T449 394Q449 381 412 234T374 68Q374 43 381 35T402 26Q411 27 422 35Q443 55 463 131Q469 151 473 152Q475 153 483 153H487Q506 153 506 144Q506 138 501 117T481 63T449 13Q436 0 417 -8Q409 -10 393 -10Q359 -10 336 5T306 36L300 51Q299 52 296 50Q294 48 292 46Q233 -10 172 -10Q117 -10 75 30T33 157ZM351 328Q351 334 346 350T323 385T277 405Q242 405 210 374T160 293Q131 214 119 129Q119 126 119 118T118 106Q118 61 136 44T179 26Q217 26 254 59T298 110Q300 114 325 217T351 328Z"></path>
<path stroke-width="1" id="E1-MJMAIN-32" d="M109 429Q82 429 66 447T50 491Q50 562 103 614T235 666Q326 666 387 610T449 465Q449 422 429 383T381 315T301 241Q265 210 201 149L142 93L218 92Q375 92 385 97Q392 99 409 186V189H449V186Q448 183 436 95T421 3V0H50V19V31Q50 38 56 46T86 81Q115 113 136 137Q145 147 170 174T204 211T233 244T261 278T284 308T305 340T320 369T333 401T340 431T343 464Q343 527 309 573T212 619Q179 619 154 602T119 569T109 550Q109 549 114 549Q132 549 151 535T170 489Q170 464 154 447T109 429Z"></path>
<path stroke-width="1" id="E1-MJMAIN-2B" d="M56 237T56 250T70 270H369V420L370 570Q380 583 389 583Q402 583 409 568V270H707Q722 262 722 250T707 230H409V-68Q401 -82 391 -82H389H387Q375 -82 369 -68V230H70Q56 237 56 250Z"></path>
<path stroke-width="1" id="E1-MJMATHI-3C0" d="M132 -11Q98 -11 98 22V33L111 61Q186 219 220 334L228 358H196Q158 358 142 355T103 336Q92 329 81 318T62 297T53 285Q51 284 38 284Q19 284 19 294Q19 300 38 329T93 391T164 429Q171 431 389 431Q549 431 553 430Q573 423 573 402Q573 371 541 360Q535 358 472 358H408L405 341Q393 269 393 222Q393 170 402 129T421 65T431 37Q431 20 417 5T381 -10Q370 -10 363 -7T347 17T331 77Q330 86 330 121Q330 170 339 226T357 318T367 358H269L268 354Q268 351 249 275T206 114T175 17Q164 -11 132 -11Z"></path>
<path stroke-width="1" id="E1-MJMAIN-2F" d="M423 750Q432 750 438 744T444 730Q444 725 271 248T92 -240Q85 -250 75 -250Q68 -250 62 -245T56 -231Q56 -221 230 257T407 740Q411 750 423 750Z"></path>
<path stroke-width="1" id="E1-MJMAIN-33" d="M127 463Q100 463 85 480T69 524Q69 579 117 622T233 665Q268 665 277 664Q351 652 390 611T430 522Q430 470 396 421T302 350L299 348Q299 347 308 345T337 336T375 315Q457 262 457 175Q457 96 395 37T238 -22Q158 -22 100 21T42 130Q42 158 60 175T105 193Q133 193 151 175T169 130Q169 119 166 110T159 94T148 82T136 74T126 70T118 67L114 66Q165 21 238 21Q293 21 321 74Q338 107 338 175V195Q338 290 274 322Q259 328 213 329L171 330L168 332Q166 335 166 348Q166 366 174 366Q202 366 232 371Q266 376 294 413T322 525V533Q322 590 287 612Q265 626 240 626Q208 626 181 615T143 592T132 580H135Q138 579 143 578T153 573T165 566T175 555T183 540T186 520Q186 498 172 481T127 463Z"></path>
<path stroke-width="1" id="E1-MJMAIN-34" d="M462 0Q444 3 333 3Q217 3 199 0H190V46H221Q241 46 248 46T265 48T279 53T286 61Q287 63 287 115V165H28V211L179 442Q332 674 334 675Q336 677 355 677H373L379 671V211H471V165H379V114Q379 73 379 66T385 54Q393 47 442 46H471V0H462ZM293 211V545L74 212L183 211H293Z"></path>
<path stroke-width="1" id="E1-MJSZ4-23A7" d="M712 899L718 893V876V865Q718 854 704 846Q627 793 577 710T510 525Q510 524 509 521Q505 493 504 349Q504 345 504 334Q504 277 504 240Q504 -2 503 -4Q502 -8 494 -9T444 -10Q392 -10 390 -9Q387 -8 386 -5Q384 5 384 230Q384 262 384 312T383 382Q383 481 392 535T434 656Q510 806 664 892L677 899H712Z"></path>
<path stroke-width="1" id="E1-MJSZ4-23A9" d="M718 -893L712 -899H677L666 -893Q542 -825 468 -714T385 -476Q384 -466 384 -282Q384 3 385 5L389 9Q392 10 444 10Q486 10 494 9T503 4Q504 2 504 -239V-310V-366Q504 -470 508 -513T530 -609Q546 -657 569 -698T617 -767T661 -812T699 -843T717 -856T718 -876V-893Z"></path>
<path stroke-width="1" id="E1-MJSZ4-23A8" d="M389 1159Q391 1160 455 1160Q496 1160 498 1159Q501 1158 502 1155Q504 1145 504 924Q504 691 503 682Q494 549 425 439T243 259L229 250L243 241Q349 175 421 66T503 -182Q504 -191 504 -424Q504 -600 504 -629T499 -659H498Q496 -660 444 -660T390 -659Q387 -658 386 -655Q384 -645 384 -425V-282Q384 -176 377 -116T342 10Q325 54 301 92T255 155T214 196T183 222T171 232Q170 233 170 250T171 268Q171 269 191 284T240 331T300 407T354 524T383 679Q384 691 384 925Q384 1152 385 1155L389 1159Z"></path>
<path stroke-width="1" id="E1-MJSZ4-23AA" d="M384 150V266Q384 304 389 309Q391 310 455 310Q496 310 498 309Q502 308 503 298Q504 283 504 150Q504 32 504 12T499 -9H498Q496 -10 444 -10T390 -9Q386 -8 385 2Q384 17 384 150Z"></path>
</defs>
<g stroke="currentColor" fill="currentColor" stroke-width="0" transform="matrix(1 0 0 -1 0 0)">
<g transform="translate(6518,0)">
<g transform="translate(0,2669)">
 <use xlink:href="#E1-MJSZ4-23A7" x="0" y="-900"></use>
<g transform="translate(0,-1534.4464617530962) scale(1,2.1654227066015954)">
 <use xlink:href="#E1-MJSZ4-23AA"></use>
</g>
 <use xlink:href="#E1-MJSZ4-23A8" x="0" y="-2670"></use>
<g transform="translate(0,-3953.71257327881) scale(1,2.1654227066015954)">
 <use xlink:href="#E1-MJSZ4-23AA"></use>
</g>
 <use xlink:href="#E1-MJSZ4-23A9" x="0" y="-3939"></use>
</g>
<g transform="translate(1056,0)">
<g transform="translate(-11,0)">
<g transform="translate(0,1869)">
 <use xlink:href="#E1-MJMATHI-62" x="0" y="0"></use>
 <use xlink:href="#E1-MJMAIN-3D" x="707" y="0"></use>
 <use xlink:href="#E1-MJMAIN-30" x="1763" y="0"></use>
 <use xlink:href="#E1-MJMAIN-28" x="12264" y="0"></use>
 <use xlink:href="#E1-MJMATHI-63" x="12653" y="0"></use>
 <use xlink:href="#E1-MJMATHI-6F" x="13087" y="0"></use>
 <use xlink:href="#E1-MJMATHI-6E" x="13572" y="0"></use>
 <use xlink:href="#E1-MJMATHI-64" x="14173" y="0"></use>
 <use xlink:href="#E1-MJMATHI-69" x="14696" y="0"></use>
 <use xlink:href="#E1-MJMATHI-74" x="15042" y="0"></use>
 <use xlink:href="#E1-MJMATHI-69" x="15403" y="0"></use>
 <use xlink:href="#E1-MJMATHI-6F" x="15749" y="0"></use>
 <use xlink:href="#E1-MJMATHI-6E" x="16234" y="0"></use>
 <use xlink:href="#E1-MJMAIN-31" x="16835" y="0"></use>
 <use xlink:href="#E1-MJMAIN-29" x="17335" y="0"></use>
</g>
<g transform="translate(0,618)">
 <use xlink:href="#E1-MJMATHI-61" x="0" y="0"></use>
 <use xlink:href="#E1-MJMAIN-3D" x="807" y="0"></use>
 <use xlink:href="#E1-MJMATHI-64" x="1863" y="0"></use>
 <use xlink:href="#E1-MJMAIN-28" x="12387" y="0"></use>
 <use xlink:href="#E1-MJMATHI-63" x="12776" y="0"></use>
 <use xlink:href="#E1-MJMATHI-6F" x="13210" y="0"></use>
 <use xlink:href="#E1-MJMATHI-6E" x="13695" y="0"></use>
 <use xlink:href="#E1-MJMATHI-64" x="14296" y="0"></use>
 <use xlink:href="#E1-MJMATHI-69" x="14819" y="0"></use>
 <use xlink:href="#E1-MJMATHI-74" x="15165" y="0"></use>
 <use xlink:href="#E1-MJMATHI-69" x="15526" y="0"></use>
 <use xlink:href="#E1-MJMATHI-6F" x="15872" y="0"></use>
 <use xlink:href="#E1-MJMATHI-6E" x="16357" y="0"></use>
 <use xlink:href="#E1-MJMAIN-32" x="16958" y="0"></use>
 <use xlink:href="#E1-MJMAIN-29" x="17458" y="0"></use>
</g>
<g transform="translate(0,-633)">
 <use xlink:href="#E1-MJMATHI-61" x="0" y="0"></use>
 <use xlink:href="#E1-MJMAIN-2B" x="751" y="0"></use>
 <use xlink:href="#E1-MJMATHI-3C0" x="1752" y="0"></use>
 <use xlink:href="#E1-MJMAIN-2F" x="2325" y="0"></use>
 <use xlink:href="#E1-MJMAIN-32" x="2826" y="0"></use>
 <use xlink:href="#E1-MJMAIN-3D" x="3604" y="0"></use>
 <use xlink:href="#E1-MJMATHI-63" x="4661" y="0"></use>
 <use xlink:href="#E1-MJMAIN-2B" x="5316" y="0"></use>
 <use xlink:href="#E1-MJMAIN-32" x="6317" y="0"></use>
 <use xlink:href="#E1-MJMATHI-61" x="6817" y="0"></use>
 <use xlink:href="#E1-MJMAIN-2F" x="7347" y="0"></use>
 <use xlink:href="#E1-MJMATHI-3C0" x="7847" y="0"></use>
 <use xlink:href="#E1-MJMAIN-28" x="12421" y="0"></use>
 <use xlink:href="#E1-MJMATHI-63" x="12810" y="0"></use>
 <use xlink:href="#E1-MJMATHI-6F" x="13244" y="0"></use>
 <use xlink:href="#E1-MJMATHI-6E" x="13729" y="0"></use>
 <use xlink:href="#E1-MJMATHI-64" x="14330" y="0"></use>
 <use xlink:href="#E1-MJMATHI-69" x="14853" y="0"></use>
 <use xlink:href="#E1-MJMATHI-74" x="15199" y="0"></use>
 <use xlink:href="#E1-MJMATHI-69" x="15560" y="0"></use>
 <use xlink:href="#E1-MJMATHI-6F" x="15906" y="0"></use>
 <use xlink:href="#E1-MJMATHI-6E" x="16391" y="0"></use>
 <use xlink:href="#E1-MJMAIN-33" x="16992" y="0"></use>
 <use xlink:href="#E1-MJMAIN-29" x="17492" y="0"></use>
</g>
<g transform="translate(0,-1919)">
 <use xlink:href="#E1-MJMATHI-63" x="0" y="0"></use>
<g transform="translate(433,0)">
 <use xlink:href="#E1-MJMATHI-3C0" x="0" y="0"></use>
 <use transform="scale(0.707)" xlink:href="#E1-MJMAIN-32" x="812" y="513"></use>
</g>
 <use xlink:href="#E1-MJMAIN-2B" x="1684" y="0"></use>
 <use xlink:href="#E1-MJMAIN-34" x="2684" y="0"></use>
 <use xlink:href="#E1-MJMATHI-3C0" x="3185" y="0"></use>
 <use xlink:href="#E1-MJMATHI-61" x="3758" y="0"></use>
 <use xlink:href="#E1-MJMAIN-2B" x="4510" y="0"></use>
 <use xlink:href="#E1-MJMAIN-34" x="5511" y="0"></use>
<g transform="translate(6011,0)">
 <use xlink:href="#E1-MJMATHI-61" x="0" y="0"></use>
 <use transform="scale(0.707)" xlink:href="#E1-MJMAIN-32" x="748" y="513"></use>
</g>
 <use xlink:href="#E1-MJMAIN-3D" x="7272" y="0"></use>
 <use xlink:href="#E1-MJMAIN-30" x="8329" y="0"></use>
 <use xlink:href="#E1-MJMAIN-28" x="12579" y="0"></use>
 <use xlink:href="#E1-MJMATHI-63" x="12969" y="0"></use>
 <use xlink:href="#E1-MJMATHI-6F" x="13402" y="0"></use>
 <use xlink:href="#E1-MJMATHI-6E" x="13888" y="0"></use>
 <use xlink:href="#E1-MJMATHI-64" x="14488" y="0"></use>
 <use xlink:href="#E1-MJMATHI-69" x="15012" y="0"></use>
 <use xlink:href="#E1-MJMATHI-74" x="15357" y="0"></use>
 <use xlink:href="#E1-MJMATHI-69" x="15719" y="0"></use>
 <use xlink:href="#E1-MJMATHI-6F" x="16064" y="0"></use>
 <use xlink:href="#E1-MJMATHI-6E" x="16550" y="0"></use>
 <use xlink:href="#E1-MJMAIN-34" x="17150" y="0"></use>
 <use xlink:href="#E1-MJMAIN-29" x="17651" y="0"></use>
</g>
</g>
</g>
</g>
</g>
</svg>